<?xml version="1.0" encoding="UTF-8"?>
<svg version="1.1" xmlns="http://www.w3.org/2000/svg" width="512" height="512">
<path d="M0 0 C15.42815511 5.27869547 30.17060293 5.34734123 46.34643555 5.20019531 C50.22951259 5.17600169 54.11181565 5.16101781 57.9949646 5.16976929 C60.38695761 5.17428356 62.77909144 5.16016098 65.17080688 5.1234436 C77.32678769 5.12736521 87.7313574 9.03608995 96.65893555 17.38769531 C104.82891571 26.12112238 108.17953503 35.67981803 108.72143555 47.57519531 C108.28370924 58.92783892 103.50295519 69.58800025 95.69018555 77.82910156 C84.6052766 87.66036009 71.94819679 89.02208216 57.6472168 89.08691406 C56.22802723 89.10380036 54.80885225 89.12195576 53.38969421 89.14131165 C49.6925615 89.18839 45.99548795 89.21846972 42.29815674 89.24475098 C38.51009435 89.27477201 34.72223519 89.32122701 30.93432617 89.36621094 C23.5301311 89.45176281 16.12592044 89.5193191 8.72143555 89.57519531 C9.8080977 91.4689516 10.89872548 93.36043262 11.9909668 95.25097656 C12.59787354 96.30454346 13.20478027 97.35811035 13.83007812 98.44360352 C23.30424963 114.1303465 37.96654644 124.16548429 55.72143555 128.57519531 C58.23203306 128.92853867 60.75582477 129.19636503 63.28393555 129.38769531 C64.54334961 129.49726563 65.80276367 129.60683594 67.1003418 129.71972656 C77.75287012 129.86098929 88.72256879 125.86038738 98.85424805 122.89941406 C100.09388809 122.54136185 101.33352814 122.18330963 102.61073303 121.81440735 C105.29065756 121.0402905 107.96968474 120.26316868 110.64804077 119.48364258 C114.92655038 118.23852801 119.2073056 117.00125269 123.48828125 115.76464844 C137.20073256 111.80123774 150.90653273 107.81505589 164.60903168 103.81738377 C171.5174637 101.80192651 178.42696797 99.79017135 185.33705902 97.78040981 C190.33087434 96.32747293 195.32287097 94.86848984 200.31355 93.40481853 C203.45179526 92.48580987 206.59156188 91.5720833 209.73171806 90.65962791 C211.17843481 90.23807399 212.62453097 89.81438256 214.06990242 89.38823891 C227.69981214 85.37182139 241.04613098 81.99581595 255.34643555 82.13769531 C256.42530029 82.14454346 257.50416504 82.1513916 258.61572266 82.15844727 C271.79426909 82.42402745 282.55503445 85.77391187 292.40893555 94.76269531 C300.80037735 103.51898241 302.20187295 113.52080645 301.99487305 125.11035156 C301.37996663 139.4084477 293.92267541 151.51351705 283.69456482 161.14607239 C274.86676762 168.35860928 263.05065971 172.19072378 252.4675293 176.03222656 C251.10680406 176.53316989 249.74636959 177.03490359 248.38619995 177.53735352 C245.48919141 178.60598119 242.59051174 179.66988141 239.69033813 180.72988892 C232.68096493 183.2922236 225.68086304 185.87973427 218.67951775 188.46390343 C216.24692918 189.3614518 213.81398447 190.25802961 211.3809967 191.15449524 C195.70992472 196.93195282 180.07910596 202.8145708 164.45504761 208.71777344 C160.06363072 210.37686665 155.67110138 212.03299923 151.27832031 213.68847656 C135.07371833 219.79549663 135.07371833 219.79549663 118.88092041 225.93373108 C77.68951389 241.5839932 77.68951389 241.5839932 56.90893555 242.07519531 C56.00079102 242.12933594 55.09264648 242.18347656 54.15698242 242.23925781 C38.81801067 242.5231251 23.3624255 236.43975295 9.2481842 231.01348877 C-35.24253225 214.03546538 -79.18631746 213.70107982 -126.13476562 214.22802734 C-127.41581712 214.24203268 -128.69686861 214.25603802 -130.01673985 214.27046776 C-136.11034656 214.34190299 -142.20176255 214.43775377 -148.29408264 214.58261108 C-149.95029869 214.61389508 -149.95029869 214.61389508 -151.63997364 214.64581108 C-153.68599135 214.68466025 -155.73183459 214.73540056 -157.77717876 214.80070686 C-163.01846543 214.88734554 -166.83343364 214.70873638 -171.27856445 211.57519531 C-173.77706689 208.3038996 -173.58343748 204.87041054 -173.67944336 200.85498047 C-173.69784649 200.16710323 -173.71624962 199.479226 -173.73521042 198.770504 C-173.79408095 196.426872 -173.83764843 194.08324117 -173.88012695 191.73925781 C-173.91706818 190.02747302 -173.95415197 188.31569129 -173.99136353 186.60391235 C-174.45406373 163.84159687 -174.57086485 141.07216033 -174.61960983 118.30567551 C-174.63627948 110.66926194 -174.67018448 103.0333356 -174.72615755 95.39710557 C-174.76943827 89.27972062 -174.78548382 83.16253058 -174.79188919 77.04500198 C-174.7985936 74.47013363 -174.81379431 71.89527241 -174.83778 69.32050705 C-174.86922037 65.75705503 -174.86950598 62.19490052 -174.86206055 58.63134766 C-174.88666855 57.05305931 -174.88666855 57.05305931 -174.91177368 55.44288635 C-174.85075115 48.33727089 -174.85075115 48.33727089 -171.92959595 44.44668579 C-168.04955577 41.70757905 -165.32549515 41.45943358 -160.6965332 41.51269531 C-158.97829346 41.52635132 -158.97829346 41.52635132 -157.2253418 41.5402832 C-155.98478027 41.5518042 -154.74421875 41.5633252 -153.46606445 41.57519531 C-150.83712369 41.57635431 -148.20827444 41.57543745 -145.5793457 41.57128906 C-141.43604311 41.56510586 -137.29410029 41.57006855 -133.15112305 41.62646484 C-130.45122855 41.66241593 -127.75331732 41.674151 -125.05322266 41.65917969 C-122.51655451 41.64520443 -119.97941638 41.66427338 -117.44335938 41.72167969 C-107.7550135 41.58833242 -103.09958732 38.17675681 -96.27856445 31.57519531 C-94.49926545 30.08117438 -92.70899772 28.60002708 -90.90356445 27.13769531 C-89.99606445 26.39777344 -89.08856445 25.65785156 -88.15356445 24.89550781 C-62.71544436 4.36528589 -33.52304038 -11.65887575 0 0 Z " fill="#FCD7A7" transform="translate(192.278564453125,270.4248046875)"/>
<path d="M0 0 C0.79374023 0.32798584 1.58748047 0.65597168 2.40527344 0.99389648 C4.94921875 2.1953125 4.94921875 2.1953125 7.79785156 3.97680664 C13.4909813 7.51985239 13.4909813 7.51985239 19.95532227 7.62988281 C23.15104147 6.24814688 26.0761949 4.65232816 29.07421875 2.8828125 C31.25311081 1.71270901 33.43807822 0.55384981 35.62890625 -0.59375 C36.69463867 -1.15610352 37.76037109 -1.71845703 38.85839844 -2.29785156 C45.55071381 -5.56048746 52.70495551 -7.23296959 59.94921875 -8.8046875 C60.72491211 -8.98136963 61.50060547 -9.15805176 62.29980469 -9.34008789 C67.46539994 -10.24592348 72.71834319 -10.03196926 77.94921875 -10.0546875 C79.10550781 -10.0753125 80.26179687 -10.0959375 81.453125 -10.1171875 C92.54559343 -10.16676278 103.08996074 -8.43608643 113.01171875 -3.3046875 C113.67872803 -2.96429443 114.3457373 -2.62390137 115.03295898 -2.27319336 C131.08958203 6.35908993 143.10115609 22.19702701 148.67382812 39.43701172 C150.8479082 47.15834074 152.60515227 55.16709466 152.94921875 63.1953125 C153.0265625 64.525625 153.0265625 64.525625 153.10546875 65.8828125 C154.37545046 107.36888179 132.9815055 145.47006094 105.33496094 174.91455078 C98.32117448 182.26381544 90.97416404 188.95118372 82.94921875 195.1953125 C81.99015625 195.97132813 81.03109375 196.74734375 80.04296875 197.546875 C64.32879366 210.046787 46.80211321 220.08194243 28.94921875 229.1953125 C28.15676758 229.60136719 27.36431641 230.00742188 26.54785156 230.42578125 C21.83619893 232.69693728 18.26021484 234.04347801 12.94921875 233.1953125 C9.03556085 231.68864966 5.35250013 229.82071228 1.63671875 227.8828125 C0.57509521 227.33882812 -0.48652832 226.79484375 -1.58032227 226.234375 C-22.22693693 215.51870896 -41.71962825 202.75037184 -59.05078125 187.1953125 C-59.94289307 186.39577148 -59.94289307 186.39577148 -60.85302734 185.58007812 C-67.64614944 179.45720126 -74.31694989 173.34348893 -80.05078125 166.1953125 C-80.87835938 165.19371094 -81.7059375 164.19210938 -82.55859375 163.16015625 C-108.32596078 131.56597478 -122.73263808 94.54966438 -118.78271484 53.40283203 C-115.90445895 32.94563846 -105.38729017 14.83036369 -89.05078125 2.1953125 C-62.70347142 -17.00773543 -28.11892286 -11.66241455 0 0 Z " fill="#E9735D" transform="translate(247.05078125,9.8046875)"/>
<path d="M0 0 C15.42815511 5.27869547 30.17060293 5.34734123 46.34643555 5.20019531 C50.22951259 5.17600169 54.11181565 5.16101781 57.9949646 5.16976929 C60.38695761 5.17428356 62.77909144 5.16016098 65.17080688 5.1234436 C77.32678769 5.12736521 87.7313574 9.03608995 96.65893555 17.38769531 C104.82891571 26.12112238 108.17953503 35.67981803 108.72143555 47.57519531 C108.28370924 58.92783892 103.50295519 69.58800025 95.69018555 77.82910156 C84.6052766 87.66036009 71.94819679 89.02208216 57.6472168 89.08691406 C56.22802723 89.10380036 54.80885225 89.12195576 53.38969421 89.14131165 C49.6925615 89.18839 45.99548795 89.21846972 42.29815674 89.24475098 C38.51009435 89.27477201 34.72223519 89.32122701 30.93432617 89.36621094 C23.5301311 89.45176281 16.12592044 89.5193191 8.72143555 89.57519531 C9.8080977 91.4689516 10.89872548 93.36043262 11.9909668 95.25097656 C12.59787354 96.30454346 13.20478027 97.35811035 13.83007812 98.44360352 C23.30424963 114.1303465 37.96654644 124.16548429 55.72143555 128.57519531 C58.23203306 128.92853867 60.75582477 129.19636503 63.28393555 129.38769531 C64.54334961 129.49726563 65.80276367 129.60683594 67.1003418 129.71972656 C77.75287012 129.86098929 88.72256879 125.86038738 98.85424805 122.89941406 C100.09388809 122.54136185 101.33352814 122.18330963 102.61073303 121.81440735 C105.29065756 121.0402905 107.96968474 120.26316868 110.64804077 119.48364258 C114.92655038 118.23852801 119.2073056 117.00125269 123.48828125 115.76464844 C137.20073256 111.80123774 150.90653273 107.81505589 164.60903168 103.81738377 C171.5174637 101.80192651 178.42696797 99.79017135 185.33705902 97.78040981 C190.33087434 96.32747293 195.32287097 94.86848984 200.31355 93.40481853 C203.45179526 92.48580987 206.59156188 91.5720833 209.73171806 90.65962791 C211.17843481 90.23807399 212.62453097 89.81438256 214.06990242 89.38823891 C227.69981214 85.37182139 241.04613098 81.99581595 255.34643555 82.13769531 C256.42530029 82.14454346 257.50416504 82.1513916 258.61572266 82.15844727 C271.79426909 82.42402745 282.55503445 85.77391187 292.40893555 94.76269531 C300.80037735 103.51898241 302.20187295 113.52080645 301.99487305 125.11035156 C301.37996663 139.4084477 293.92267541 151.51351705 283.69456482 161.14607239 C274.86676762 168.35860928 263.05065971 172.19072378 252.4675293 176.03222656 C251.10680406 176.53316989 249.74636959 177.03490359 248.38619995 177.53735352 C245.48919141 178.60598119 242.59051174 179.66988141 239.69033813 180.72988892 C232.68096493 183.2922236 225.68086304 185.87973427 218.67951775 188.46390343 C216.24692918 189.3614518 213.81398447 190.25802961 211.3809967 191.15449524 C195.70992472 196.93195282 180.07910596 202.8145708 164.45504761 208.71777344 C160.06363072 210.37686665 155.67110138 212.03299923 151.27832031 213.68847656 C135.07371833 219.79549663 135.07371833 219.79549663 118.88092041 225.93373108 C77.68951389 241.5839932 77.68951389 241.5839932 56.90893555 242.07519531 C56.00079102 242.12933594 55.09264648 242.18347656 54.15698242 242.23925781 C38.81801067 242.5231251 23.3624255 236.43975295 9.2481842 231.01348877 C-35.24253225 214.03546538 -79.18631746 213.70107982 -126.13476562 214.22802734 C-127.41581712 214.24203268 -128.69686861 214.25603802 -130.01673985 214.27046776 C-136.11034656 214.34190299 -142.20176255 214.43775377 -148.29408264 214.58261108 C-149.95029869 214.61389508 -149.95029869 214.61389508 -151.63997364 214.64581108 C-153.68599135 214.68466025 -155.73183459 214.73540056 -157.77717876 214.80070686 C-163.01846543 214.88734554 -166.83343364 214.70873638 -171.27856445 211.57519531 C-173.77706689 208.3038996 -173.58343748 204.87041054 -173.67944336 200.85498047 C-173.69784649 200.16710323 -173.71624962 199.479226 -173.73521042 198.770504 C-173.79408095 196.426872 -173.83764843 194.08324117 -173.88012695 191.73925781 C-173.91706818 190.02747302 -173.95415197 188.31569129 -173.99136353 186.60391235 C-174.45406373 163.84159687 -174.57086485 141.07216033 -174.61960983 118.30567551 C-174.63627948 110.66926194 -174.67018448 103.0333356 -174.72615755 95.39710557 C-174.76943827 89.27972062 -174.78548382 83.16253058 -174.79188919 77.04500198 C-174.7985936 74.47013363 -174.81379431 71.89527241 -174.83778 69.32050705 C-174.86922037 65.75705503 -174.86950598 62.19490052 -174.86206055 58.63134766 C-174.88666855 57.05305931 -174.88666855 57.05305931 -174.91177368 55.44288635 C-174.85075115 48.33727089 -174.85075115 48.33727089 -171.92959595 44.44668579 C-168.04955577 41.70757905 -165.32549515 41.45943358 -160.6965332 41.51269531 C-158.97829346 41.52635132 -158.97829346 41.52635132 -157.2253418 41.5402832 C-155.98478027 41.5518042 -154.74421875 41.5633252 -153.46606445 41.57519531 C-150.83712369 41.57635431 -148.20827444 41.57543745 -145.5793457 41.57128906 C-141.43604311 41.56510586 -137.29410029 41.57006855 -133.15112305 41.62646484 C-130.45122855 41.66241593 -127.75331732 41.674151 -125.05322266 41.65917969 C-122.51655451 41.64520443 -119.97941638 41.66427338 -117.44335938 41.72167969 C-107.7550135 41.58833242 -103.09958732 38.17675681 -96.27856445 31.57519531 C-94.49926545 30.08117438 -92.70899772 28.60002708 -90.90356445 27.13769531 C-89.99606445 26.39777344 -89.08856445 25.65785156 -88.15356445 24.89550781 C-62.71544436 4.36528589 -33.52304038 -11.65887575 0 0 Z M-73.78051758 40.25830078 C-76.9331807 43.02972595 -80.19511696 45.66720054 -83.4621582 48.30175781 C-85.49584103 49.94337142 -87.50224763 51.60359949 -89.5012207 53.28613281 C-90.61376791 54.19588538 -91.7270368 55.10475621 -92.84106445 56.01269531 C-93.83235352 56.83640625 -94.82364258 57.66011719 -95.8449707 58.50878906 C-99.27856445 60.57519531 -99.27856445 60.57519531 -109.27856445 62.57519531 C-109.27856445 105.80519531 -109.27856445 149.03519531 -109.27856445 193.57519531 C-88.48856445 193.90519531 -67.69856445 194.23519531 -46.27856445 194.57519531 C-37.81399162 196.99364469 -29.35276233 199.41712275 -20.90356445 201.88769531 C-19.88609131 202.18474365 -18.86861816 202.48179199 -17.8203125 202.7878418 C-13.60869456 204.01745696 -9.39735469 205.24802027 -5.1862793 206.47949219 C0.81433771 208.23427189 6.81612935 209.98491892 12.81958008 211.72998047 C14.74299946 212.29020913 16.66585965 212.85236151 18.58813477 213.41650391 C63.81352118 226.68857518 95.85679072 212.87728715 138.28710938 196.60961914 C154.12091959 190.54251484 169.99300559 184.57980474 185.8724699 178.63350868 C191.42067657 176.55562162 196.96705295 174.47290356 202.51269531 172.38818359 C205.59124666 171.23138903 208.66994829 170.07499536 211.7487793 168.91894531 C212.87122764 168.49746531 212.87122764 168.49746531 214.0163517 168.06747055 C223.06661267 164.67105069 232.1312819 161.32171813 241.2253418 158.04394531 C243.75972811 157.1211555 246.29342611 156.19651029 248.82675171 155.27081299 C250.99470951 154.48697496 253.17031882 153.72848438 255.34765625 152.97119141 C265.77734536 149.22627429 273.90373059 143.99699834 278.78393555 133.76269531 C281.53921744 126.96764067 283.10540567 120.49644398 280.59643555 113.38769531 C277.04117572 108.05480558 272.74982763 104.8521317 266.62768555 103.08691406 C252.13907391 100.53582787 238.63479491 103.64582338 224.72143555 107.57519531 C223.8068457 107.83220215 222.89225586 108.08920898 221.94995117 108.35400391 C215.98551518 110.0443425 210.04216901 111.80207949 204.10131836 113.57324219 C198.48103989 115.2393519 192.8494921 116.86656613 187.21871948 118.49676514 C183.90539528 119.45633161 180.59270917 120.41809475 177.2800293 121.37988281 C176.31375359 121.66038986 176.31375359 121.66038986 175.32795715 121.94656372 C167.37620653 124.25540768 159.42735233 126.57414819 151.47924805 128.89550781 C147.55857721 130.04031698 143.63657717 131.18042325 139.71362305 132.31738281 C129.67340172 135.23074599 119.65289471 138.1940997 109.65893555 141.26269531 C92.36564582 146.55429603 76.85742664 149.97138119 58.72143555 149.57519531 C57.87194336 149.5584375 57.02245117 149.54167969 56.1472168 149.52441406 C36.47342711 148.21282808 18.38193791 135.76214224 5.19018555 121.91894531 C-4.9725539 110.08561856 -17.07726452 90.81542997 -16.27856445 74.57519531 C-13.5942703 70.97692725 -12.10432394 69.71231345 -7.63154602 68.96960449 C-6.20186687 68.95271424 -4.77170288 68.96298121 -3.34228516 68.99511719 C-2.55782516 68.99266495 -1.77336517 68.99021271 -0.96513367 68.98768616 C0.73343208 68.98551832 2.43204267 68.9947647 4.13049889 69.01417542 C6.82672484 69.04429237 9.52136671 69.04319765 12.21772766 69.03405762 C18.91673466 69.01778944 25.6152526 69.05503099 32.31414795 69.09063721 C37.97245308 69.11868703 43.63008298 69.12618509 49.28843117 69.10707092 C51.93100434 69.10645742 54.57215198 69.13554042 57.21452332 69.16589355 C65.98408386 69.19047804 73.37759404 69.05405016 80.72143555 63.57519531 C83.00703679 61.37851221 83.00703679 61.37851221 84.28393555 58.95019531 C84.73897461 58.19480469 85.19401367 57.43941406 85.6628418 56.66113281 C88.41520854 51.23765001 88.80235929 45.14533201 87.0378418 39.31738281 C84.27649686 33.29054697 80.33356207 29.82208449 74.33203125 26.95727539 C68.57637067 24.8840823 62.74665523 25.21124402 56.7019043 25.27441406 C54.12572988 25.26676447 51.54955784 25.25827329 48.97338867 25.24902344 C44.95637105 25.24801908 40.93978417 25.26248181 36.92285156 25.2902832 C21.45496235 25.3734696 8.05548203 24.87435219 -6.42420959 19.20820618 C-32.03761013 10.46470127 -55.2725564 23.83336045 -73.78051758 40.25830078 Z " fill="#010100" transform="translate(192.278564453125,270.4248046875)"/>
<path d="M0 0 C0.79374023 0.32798584 1.58748047 0.65597168 2.40527344 0.99389648 C4.94921875 2.1953125 4.94921875 2.1953125 7.79785156 3.97680664 C13.4909813 7.51985239 13.4909813 7.51985239 19.95532227 7.62988281 C23.15104147 6.24814688 26.0761949 4.65232816 29.07421875 2.8828125 C31.25311081 1.71270901 33.43807822 0.55384981 35.62890625 -0.59375 C36.69463867 -1.15610352 37.76037109 -1.71845703 38.85839844 -2.29785156 C45.55071381 -5.56048746 52.70495551 -7.23296959 59.94921875 -8.8046875 C60.72491211 -8.98136963 61.50060547 -9.15805176 62.29980469 -9.34008789 C67.46539994 -10.24592348 72.71834319 -10.03196926 77.94921875 -10.0546875 C79.10550781 -10.0753125 80.26179687 -10.0959375 81.453125 -10.1171875 C92.54559343 -10.16676278 103.08996074 -8.43608643 113.01171875 -3.3046875 C113.67872803 -2.96429443 114.3457373 -2.62390137 115.03295898 -2.27319336 C131.08958203 6.35908993 143.10115609 22.19702701 148.67382812 39.43701172 C150.8479082 47.15834074 152.60515227 55.16709466 152.94921875 63.1953125 C153.0265625 64.525625 153.0265625 64.525625 153.10546875 65.8828125 C154.37545046 107.36888179 132.9815055 145.47006094 105.33496094 174.91455078 C98.32117448 182.26381544 90.97416404 188.95118372 82.94921875 195.1953125 C81.99015625 195.97132813 81.03109375 196.74734375 80.04296875 197.546875 C64.32879366 210.046787 46.80211321 220.08194243 28.94921875 229.1953125 C28.15676758 229.60136719 27.36431641 230.00742188 26.54785156 230.42578125 C21.83619893 232.69693728 18.26021484 234.04347801 12.94921875 233.1953125 C9.03556085 231.68864966 5.35250013 229.82071228 1.63671875 227.8828125 C0.57509521 227.33882812 -0.48652832 226.79484375 -1.58032227 226.234375 C-22.22693693 215.51870896 -41.71962825 202.75037184 -59.05078125 187.1953125 C-59.94289307 186.39577148 -59.94289307 186.39577148 -60.85302734 185.58007812 C-67.64614944 179.45720126 -74.31694989 173.34348893 -80.05078125 166.1953125 C-80.87835938 165.19371094 -81.7059375 164.19210938 -82.55859375 163.16015625 C-108.32596078 131.56597478 -122.73263808 94.54966438 -118.78271484 53.40283203 C-115.90445895 32.94563846 -105.38729017 14.83036369 -89.05078125 2.1953125 C-62.70347142 -17.00773543 -28.11892286 -11.66241455 0 0 Z M-85.05078125 26.1953125 C-97.64937767 42.67235007 -101.12519826 62.27279563 -98.77832031 82.54931641 C-96.9202443 95.23213272 -92.53661247 106.67353172 -87.05078125 118.1953125 C-86.57898438 119.20053955 -86.57898438 119.20053955 -86.09765625 120.22607422 C-78.69995216 135.74636336 -67.94534191 148.89811509 -56.05078125 161.1953125 C-55.5820459 161.6898291 -55.11331055 162.1843457 -54.63037109 162.69384766 C-47.03103854 170.70464999 -38.89262799 177.5965883 -30.05078125 184.1953125 C-29.50760254 184.60990723 -28.96442383 185.02450195 -28.40478516 185.45166016 C-17.93018711 193.43818505 -6.6158077 199.9224173 4.94921875 206.1953125 C5.82513672 206.6907959 6.70105469 207.1862793 7.60351562 207.69677734 C12.50216751 210.37000419 12.50216751 210.37000419 17.91015625 211.35546875 C22.69772951 209.52782189 27.10766408 207.13329699 31.57421875 204.6328125 C33.05462646 203.81200195 33.05462646 203.81200195 34.56494141 202.97460938 C41.61296791 199.02948031 48.40770749 194.9440299 54.94921875 190.1953125 C55.56990234 189.74687988 56.19058594 189.29844727 56.83007812 188.83642578 C64.46852671 183.29398211 71.87978528 177.64000135 78.79296875 171.19921875 C80.79623799 169.33748483 82.85495172 167.5780009 84.94921875 165.8203125 C108.89622607 144.79484008 129.66409176 111.64194895 132.17236328 79.31982422 C133.1919231 59.45598628 130.97285295 41.65712567 117.76171875 25.9453125 C108.31555856 16.01028592 96.55067554 10.26954684 82.79101562 9.77563477 C60.37715607 9.59020732 39.4657891 17.85093227 20.94921875 30.1953125 C12.29557273 31.613943 6.80845042 27.55756069 -0.27636719 23.24267578 C-7.5432923 18.95331024 -15.35067721 15.93770452 -23.36328125 13.3828125 C-24.33177002 13.07210815 -24.33177002 13.07210815 -25.31982422 12.75512695 C-46.22528952 6.40318468 -69.87118512 9.63061356 -85.05078125 26.1953125 Z " fill="#010000" transform="translate(247.05078125,9.8046875)"/>
<path d="M0 0 C0.88141663 -0.01283524 1.76283325 -0.02567047 2.67095947 -0.03889465 C3.62613464 -0.04628159 4.58130981 -0.05366852 5.56542969 -0.0612793 C7.03807281 -0.07338692 7.03807281 -0.07338692 8.54046631 -0.08573914 C10.62184887 -0.09958597 12.70325419 -0.11030543 14.78466797 -0.11816406 C17.96072767 -0.1353542 21.13574042 -0.17923261 24.31152344 -0.22338867 C26.3336512 -0.23351754 28.35578781 -0.24203304 30.37792969 -0.2487793 C31.32500793 -0.26628738 32.27208618 -0.28379547 33.24786377 -0.30183411 C38.89089908 -0.28336809 42.35661965 0.24569542 46.73730469 4.17700195 C48.88176713 7.20583425 48.97515022 9.72228596 48.93261719 13.38012695 C48.92617188 14.35981445 48.91972656 15.33950195 48.91308594 16.34887695 C48.88794922 17.87254883 48.88794922 17.87254883 48.86230469 19.42700195 C48.85328125 20.45825195 48.84425781 21.48950195 48.83496094 22.55200195 C48.8114248 25.09390482 48.77854492 27.63533476 48.73730469 30.17700195 C49.3723291 30.15605469 50.00735352 30.13510742 50.66162109 30.11352539 C53.56168545 30.02995615 56.46149585 29.97821422 59.36230469 29.92700195 C60.36132812 29.89348633 61.36035156 29.8599707 62.38964844 29.82543945 C68.32924471 29.7467693 72.16467947 29.94473395 76.73730469 34.17700195 C78.50730144 37.0844941 78.99709515 39.28319034 79.04370117 42.66674805 C79.05968857 43.54801361 79.07567596 44.42927917 79.09214783 45.33724976 C79.09751053 46.28210236 79.10287323 47.22695496 79.10839844 48.20043945 C79.11742691 49.17937164 79.12645538 50.15830383 79.13575745 51.16690063 C79.15025389 53.23631739 79.15914518 55.30577991 79.1628418 57.37524414 C79.17473656 60.53391079 79.22392731 63.69062256 79.27441406 66.84887695 C79.28387888 68.86188827 79.29111363 70.87491157 79.29589844 72.88793945 C79.31543076 73.82874359 79.33496307 74.76954773 79.35508728 75.73886108 C79.32467354 80.18037616 79.1832314 83.22430288 76.32739258 86.75756836 C72.77529639 90.07562597 71.24920775 90.30069373 66.51074219 90.2746582 C64.96386719 90.26982422 64.96386719 90.26982422 63.38574219 90.26489258 C62.30550781 90.25651367 61.22527344 90.24813477 60.11230469 90.23950195 C58.48035156 90.23273438 58.48035156 90.23273438 56.81542969 90.22583008 C54.1226668 90.21401971 51.4300128 90.19754974 48.73730469 90.17700195 C48.75301514 90.81726318 48.76872559 91.45752441 48.78491211 92.1171875 C48.84747583 95.03286827 48.88636276 97.9484075 48.92480469 100.86450195 C48.94994141 101.8719043 48.97507812 102.87930664 49.00097656 103.91723633 C49.0943919 113.35218573 49.0943919 113.35218573 45.73730469 117.17700195 C42.78897835 119.77287215 40.96680069 120.55494734 37.0480957 120.58105469 C36.12356094 120.59373886 35.19902618 120.60642303 34.24647522 120.61949158 C33.25473801 120.61655594 32.26300079 120.6136203 31.24121094 120.6105957 C29.70266701 120.61845848 29.70266701 120.61845848 28.13304138 120.6264801 C25.96524968 120.63289951 23.79742314 120.63156438 21.62963867 120.62304688 C18.31528578 120.61454168 15.00265899 120.64329294 11.68847656 120.67504883 C9.5810552 120.67666107 7.4736308 120.67608287 5.36621094 120.6730957 C4.37649796 120.68432968 3.38678497 120.69556366 2.36708069 120.70713806 C-2.02739114 120.66270031 -4.55575491 120.61140445 -8.36450195 118.27099609 C-11.35393388 114.9732009 -11.38333555 113.09864696 -11.36035156 108.73168945 C-11.35712891 107.65532227 -11.35390625 106.57895508 -11.35058594 105.4699707 C-11.34220703 104.34204102 -11.33382812 103.21411133 -11.32519531 102.05200195 C-11.32068359 100.91633789 -11.31617188 99.78067383 -11.31152344 98.6105957 C-11.29971146 95.79934557 -11.28324038 92.98819965 -11.26269531 90.17700195 C-12.31396606 90.20842285 -12.31396606 90.20842285 -13.38647461 90.24047852 C-16.57423451 90.32383244 -19.76176483 90.37572335 -22.95019531 90.42700195 C-24.05298828 90.46051758 -25.15578125 90.4940332 -26.29199219 90.52856445 C-34.49813002 90.62773228 -34.49813002 90.62773228 -38.46972656 88.28637695 C-41.06661583 85.23121311 -41.39494948 83.55025947 -41.45556641 79.62304688 C-41.47162933 78.6783403 -41.48769226 77.73363373 -41.50424194 76.76029968 C-41.54866794 72.43786302 -41.58975564 68.11558028 -41.61279297 63.79296875 C-41.62935627 61.51259153 -41.65665096 59.23226629 -41.69482422 56.95214844 C-41.74956312 53.66614825 -41.77146288 50.38136529 -41.78613281 47.0949707 C-41.80880219 46.07710983 -41.83147156 45.05924896 -41.85482788 44.01054382 C-41.83363929 36.91682076 -41.83363929 36.91682076 -38.85498047 33.05712891 C-35.20788005 30.41196783 -33.49034226 30.05487202 -29.03613281 30.0793457 C-28.00488281 30.08256836 -26.97363281 30.08579102 -25.91113281 30.08911133 C-24.29078125 30.10167969 -24.29078125 30.10167969 -22.63769531 30.11450195 C-21.00574219 30.12126953 -21.00574219 30.12126953 -19.34082031 30.12817383 C-16.64805742 30.13998419 -13.95540343 30.15645417 -11.26269531 30.17700195 C-11.28887939 29.47615479 -11.31506348 28.77530762 -11.34204102 28.05322266 C-11.44623071 24.86554545 -11.51109114 21.6782267 -11.57519531 18.48950195 C-11.61708984 17.38670898 -11.65898437 16.28391602 -11.70214844 15.14770508 C-11.82295475 7.15032749 -11.82295475 7.15032749 -10.19775391 4.3269043 C-7.01851904 1.08228671 -4.39464714 0.05568649 0 0 Z " fill="#030202" transform="translate(245.2626953125,60.822998046875)"/>
<path d="M0 0 C8.25 0 16.5 0 25 0 C25 43.23 25 86.46 25 131 C17.08 131 9.16 131 1 131 C0.82839179 117.9792274 0.66147866 104.95840231 0.5 91.9375 C0.48812275 90.98004379 0.4762455 90.02258759 0.46400833 89.03611755 C0.09754204 59.35551487 -0.14240333 29.68318378 0 0 Z " fill="#EDC89C" transform="translate(38,333)"/>
<path d="M0 0 C6.6 0 13.2 0 20 0 C20.01417969 1.67449219 20.02835937 3.34898438 20.04296875 5.07421875 C20.08987204 7.2786733 20.1381194 9.48309955 20.1875 11.6875 C20.19330078 12.79029297 20.19910156 13.89308594 20.20507812 15.02929688 C20.33249792 19.71551371 20.48953971 23.0775893 22.78125 27.21875 C27.79295615 29.99221845 32.67338235 29.78283778 38.3125 29.8125 C39.99569336 29.85020508 39.99569336 29.85020508 41.71289062 29.88867188 C44.47488457 29.9474377 47.23748 29.97660684 50 30 C50 36.6 50 43.2 50 50 C48.39769531 50.03738281 46.79539062 50.07476562 45.14453125 50.11328125 C43.03383101 50.17894748 40.92315497 50.24539459 38.8125 50.3125 C37.75740234 50.33505859 36.70230469 50.35761719 35.61523438 50.38085938 C34.59365234 50.41630859 33.57207031 50.45175781 32.51953125 50.48828125 C31.58214111 50.51446533 30.64475098 50.54064941 29.67895508 50.56762695 C26.52030925 51.07742024 24.58607501 52.1422284 22 54 C20.71394339 56.57211322 20.78956059 58.56906966 20.68359375 61.4453125 C20.62075195 63.05986328 20.62075195 63.05986328 20.55664062 64.70703125 C20.51732422 65.83496094 20.47800781 66.96289062 20.4375 68.125 C20.37272461 69.82849609 20.37272461 69.82849609 20.30664062 71.56640625 C20.20034055 74.37745261 20.09964603 77.1887099 20 80 C13.4 80 6.8 80 0 80 C-0.01417969 78.39769531 -0.02835938 76.79539062 -0.04296875 75.14453125 C-0.08987332 73.0338255 -0.13812068 70.9231493 -0.1875 68.8125 C-0.19330078 67.75740234 -0.19910156 66.70230469 -0.20507812 65.61523438 C-0.33717919 59.25096522 -0.33717919 59.25096522 -3.42578125 53.82421875 C-6.92953979 51.34128212 -8.76619424 50.85423356 -13.0078125 50.68359375 C-14.48701172 50.62075195 -14.48701172 50.62075195 -15.99609375 50.55664062 C-17.02863281 50.51732422 -18.06117188 50.47800781 -19.125 50.4375 C-20.16527344 50.39431641 -21.20554688 50.35113281 -22.27734375 50.30664062 C-24.8513983 50.20037232 -27.42568131 50.09966473 -30 50 C-30 43.4 -30 36.8 -30 30 C-28.38609375 29.93941406 -26.7721875 29.87882812 -25.109375 29.81640625 C-22.98957462 29.73198942 -20.86978341 29.64734199 -18.75 29.5625 C-17.15478516 29.50352539 -17.15478516 29.50352539 -15.52734375 29.44335938 C-14.50253906 29.40146484 -13.47773438 29.35957031 -12.421875 29.31640625 C-11.00793457 29.26141968 -11.00793457 29.26141968 -9.56542969 29.20532227 C-6.18298092 28.9985968 -6.18298092 28.9985968 -3 28 C-1.08686688 24.53430631 -0.71709101 21.39321522 -0.5859375 17.48046875 C-0.54726562 16.45888672 -0.50859375 15.43730469 -0.46875 14.38476562 C-0.4378125 13.32966797 -0.406875 12.27457031 -0.375 11.1875 C-0.33632812 10.11306641 -0.29765625 9.03863281 -0.2578125 7.93164062 C-0.16381762 5.28803461 -0.08083151 2.64404124 0 0 Z " fill="#EEEEEE" transform="translate(254,81)"/>
</svg>
